<mxfile host="app.diagrams.net" agent="Mozilla/5.0 (Windows NT 10.0; Win64; x64) AppleWebKit/537.36 (KHTML, like Gecko) Chrome/138.0.0.0 Safari/537.36" version="27.2.0">
  <diagram name="Página-1" id="SSPrgdszmzeF1-GRCdsb">
    <mxGraphModel grid="1" page="1" gridSize="10" guides="1" tooltips="1" connect="1" arrows="1" fold="1" pageScale="1" pageWidth="827" pageHeight="1169" math="0" shadow="0">
      <root>
        <mxCell id="0" />
        <mxCell id="1" parent="0" />
        <mxCell id="H7eDAItWXDpPF6o0DRyG-1" value="Usuario" style="shape=umlLifeline;perimeter=lifelinePerimeter;whiteSpace=wrap;container=1;dropTarget=0;collapsible=0;recursiveResize=0;outlineConnect=0;portConstraint=eastwest;newEdgeStyle={&quot;edgeStyle&quot;:&quot;elbowEdgeStyle&quot;,&quot;elbow&quot;:&quot;vertical&quot;,&quot;curved&quot;:0,&quot;rounded&quot;:0};participant=umlActor;verticalAlign=bottom;labelPosition=center;verticalLabelPosition=top;align=center;size=65;" vertex="1" parent="1">
          <mxGeometry x="20" y="20" width="35" height="414" as="geometry" />
        </mxCell>
        <mxCell id="H7eDAItWXDpPF6o0DRyG-2" value="Sistema" style="shape=umlLifeline;perimeter=lifelinePerimeter;whiteSpace=wrap;container=1;dropTarget=0;collapsible=0;recursiveResize=0;outlineConnect=0;portConstraint=eastwest;newEdgeStyle={&quot;edgeStyle&quot;:&quot;elbowEdgeStyle&quot;,&quot;elbow&quot;:&quot;vertical&quot;,&quot;curved&quot;:0,&quot;rounded&quot;:0};size=65;" vertex="1" parent="1">
          <mxGeometry x="572" y="20" width="150" height="414" as="geometry" />
        </mxCell>
        <mxCell id="H7eDAItWXDpPF6o0DRyG-3" value="" style="points=[];perimeter=orthogonalPerimeter;outlineConnect=0;targetShapes=umlLifeline;portConstraint=eastwest;newEdgeStyle={&quot;edgeStyle&quot;:&quot;elbowEdgeStyle&quot;,&quot;elbow&quot;:&quot;vertical&quot;,&quot;curved&quot;:0,&quot;rounded&quot;:0}" vertex="1" parent="H7eDAItWXDpPF6o0DRyG-2">
          <mxGeometry x="70" y="107" width="10" height="212" as="geometry" />
        </mxCell>
        <mxCell id="H7eDAItWXDpPF6o0DRyG-4" value="iniciarCriacaoPersonagem()" style="verticalAlign=bottom;edgeStyle=elbowEdgeStyle;elbow=vertical;curved=0;rounded=0;endArrow=block;" edge="1" parent="1" source="H7eDAItWXDpPF6o0DRyG-1" target="H7eDAItWXDpPF6o0DRyG-3">
          <mxGeometry relative="1" as="geometry">
            <Array as="points">
              <mxPoint x="380" y="127" />
            </Array>
          </mxGeometry>
        </mxCell>
        <mxCell id="H7eDAItWXDpPF6o0DRyG-5" value="criarPersonagem(dadosPersonagem)" style="verticalAlign=bottom;edgeStyle=elbowEdgeStyle;elbow=vertical;curved=0;rounded=0;endArrow=block;" edge="1" parent="1" source="H7eDAItWXDpPF6o0DRyG-1" target="H7eDAItWXDpPF6o0DRyG-3">
          <mxGeometry relative="1" as="geometry">
            <Array as="points">
              <mxPoint x="378" y="228" />
            </Array>
          </mxGeometry>
        </mxCell>
        <mxCell id="H7eDAItWXDpPF6o0DRyG-6" value="personagemCriado" style="verticalAlign=bottom;edgeStyle=elbowEdgeStyle;elbow=vertical;curved=0;rounded=0;dashed=1;dashPattern=2 3;endArrow=block;" edge="1" parent="1" source="H7eDAItWXDpPF6o0DRyG-3" target="H7eDAItWXDpPF6o0DRyG-1">
          <mxGeometry relative="1" as="geometry">
            <Array as="points">
              <mxPoint x="381" y="329" />
            </Array>
          </mxGeometry>
        </mxCell>
        <mxCell id="H7eDAItWXDpPF6o0DRyG-7" value="O usuário navega para a tela de criação de personagem." style="fillColor=#ffff88;strokeColor=#9E916F;" vertex="1" parent="1">
          <mxGeometry x="120" y="147" width="417" height="49" as="geometry" />
        </mxCell>
        <mxCell id="H7eDAItWXDpPF6o0DRyG-8" value="&#39;dadosPersonagem&#39; inclui nome, nivel, racaId, classeId, atributos, etc." style="fillColor=#ffff88;strokeColor=#9E916F;" vertex="1" parent="1">
          <mxGeometry x="120" y="248" width="502" height="49" as="geometry" />
        </mxCell>
      </root>
    </mxGraphModel>
  </diagram>
</mxfile>
